<mxfile host="65bd71144e">
    <diagram id="CgLSC6A_80A0bIQbenY6" name="Page-1">
        <mxGraphModel dx="381" dy="905" grid="0" gridSize="10" guides="0" tooltips="0" connect="1" arrows="1" fold="1" page="0" pageScale="1" pageWidth="1654" pageHeight="1169" math="0" shadow="0">
            <root>
                <mxCell id="0"/>
                <mxCell id="1" parent="0"/>
                <mxCell id="4" value="" style="edgeStyle=none;html=1;" parent="1" source="2" target="3" edge="1">
                    <mxGeometry relative="1" as="geometry"/>
                </mxCell>
                <mxCell id="2" value="Start" style="ellipse;whiteSpace=wrap;html=1;" parent="1" vertex="1">
                    <mxGeometry x="270" y="-50" width="120" height="30" as="geometry"/>
                </mxCell>
                <mxCell id="7" value="" style="edgeStyle=none;html=1;" parent="1" source="3" target="6" edge="1">
                    <mxGeometry relative="1" as="geometry"/>
                </mxCell>
                <mxCell id="3" value="select input = 0" style="whiteSpace=wrap;html=1;" parent="1" vertex="1">
                    <mxGeometry x="260" width="140" height="20" as="geometry"/>
                </mxCell>
                <mxCell id="9" value="Yes" style="edgeStyle=none;html=1;entryX=0.5;entryY=0;entryDx=0;entryDy=0;" parent="1" source="6" target="8" edge="1">
                    <mxGeometry x="-0.5" y="20" relative="1" as="geometry">
                        <Array as="points">
                            <mxPoint x="330" y="160"/>
                        </Array>
                        <mxPoint as="offset"/>
                    </mxGeometry>
                </mxCell>
                <mxCell id="12" value="No" style="edgeStyle=none;html=1;entryX=0.5;entryY=0;entryDx=0;entryDy=0;" parent="1" source="6" target="17" edge="1">
                    <mxGeometry x="-0.8947" y="20" relative="1" as="geometry">
                        <mxPoint x="331.13489658738035" y="350.2140692864232" as="targetPoint"/>
                        <Array as="points">
                            <mxPoint x="460" y="90"/>
                            <mxPoint x="460" y="300"/>
                            <mxPoint x="330" y="300"/>
                            <mxPoint x="330" y="320"/>
                        </Array>
                        <mxPoint as="offset"/>
                    </mxGeometry>
                </mxCell>
                <mxCell id="6" value="while&lt;br&gt;select != 1 | 2" style="rhombus;whiteSpace=wrap;html=1;" parent="1" vertex="1">
                    <mxGeometry x="250" y="40" width="160" height="100" as="geometry"/>
                </mxCell>
                <mxCell id="15" style="edgeStyle=none;html=1;entryX=0;entryY=0.5;entryDx=0;entryDy=0;" parent="1" source="8" target="6" edge="1">
                    <mxGeometry relative="1" as="geometry">
                        <Array as="points">
                            <mxPoint x="330" y="270"/>
                            <mxPoint x="330" y="290"/>
                            <mxPoint x="200" y="290"/>
                            <mxPoint x="200" y="90"/>
                        </Array>
                    </mxGeometry>
                </mxCell>
                <mxCell id="8" value="какой массив &lt;br&gt;будем использовать?&lt;br&gt;1: Ввод с клавиатуры&lt;br&gt;2: Заданный программой&lt;br&gt;select input =" style="shape=parallelogram;perimeter=parallelogramPerimeter;whiteSpace=wrap;html=1;fixedSize=1;" parent="1" vertex="1">
                    <mxGeometry x="210" y="160" width="240" height="110" as="geometry"/>
                </mxCell>
                <mxCell id="19" value="Yes" style="edgeStyle=none;html=1;fontSize=12;" parent="1" source="17" target="20" edge="1">
                    <mxGeometry x="-0.3333" y="20" relative="1" as="geometry">
                        <mxPoint x="330" y="430" as="targetPoint"/>
                        <mxPoint as="offset"/>
                    </mxGeometry>
                </mxCell>
                <mxCell id="22" value="No" style="edgeStyle=none;html=1;fontSize=12;" parent="1" source="17" target="21" edge="1">
                    <mxGeometry x="-0.6667" y="10" relative="1" as="geometry">
                        <Array as="points">
                            <mxPoint x="550" y="360"/>
                        </Array>
                        <mxPoint as="offset"/>
                    </mxGeometry>
                </mxCell>
                <mxCell id="17" value="&lt;font style=&quot;font-size: 12px&quot;&gt;select = 1&lt;/font&gt;" style="rhombus;whiteSpace=wrap;html=1;fontSize=20;" parent="1" vertex="1">
                    <mxGeometry x="280" y="320" width="100" height="80" as="geometry"/>
                </mxCell>
                <mxCell id="26" value="" style="edgeStyle=none;html=1;fontSize=12;entryX=0.5;entryY=0;entryDx=0;entryDy=0;" parent="1" source="20" target="K88zhTfSzGPeS8z7BmZC-89" edge="1">
                    <mxGeometry relative="1" as="geometry"/>
                </mxCell>
                <mxCell id="20" value="Введите элементы массива&lt;br&gt;&amp;nbsp;через запятую" style="shape=parallelogram;perimeter=parallelogramPerimeter;whiteSpace=wrap;html=1;fixedSize=1;fontSize=12;" parent="1" vertex="1">
                    <mxGeometry x="230" y="430" width="200" height="60" as="geometry"/>
                </mxCell>
                <mxCell id="31" style="edgeStyle=none;html=1;entryX=0.5;entryY=0;entryDx=0;entryDy=0;fontSize=12;" parent="1" source="21" target="K88zhTfSzGPeS8z7BmZC-101" edge="1">
                    <mxGeometry relative="1" as="geometry">
                        <Array as="points">
                            <mxPoint x="550" y="660"/>
                            <mxPoint x="330" y="660"/>
                        </Array>
                    </mxGeometry>
                </mxCell>
                <mxCell id="21" value="&lt;span style=&quot;font-size: 12px&quot;&gt;massive = [&quot;abc&quot;, ...]&lt;/span&gt;" style="whiteSpace=wrap;html=1;fontSize=20;" parent="1" vertex="1">
                    <mxGeometry x="460" y="480" width="180" height="40" as="geometry"/>
                </mxCell>
                <mxCell id="29" style="edgeStyle=none;html=1;exitX=0.5;exitY=1;exitDx=0;exitDy=0;fontSize=12;entryX=0.5;entryY=0;entryDx=0;entryDy=0;" parent="1" source="K88zhTfSzGPeS8z7BmZC-89" target="K88zhTfSzGPeS8z7BmZC-64" edge="1">
                    <mxGeometry relative="1" as="geometry">
                        <mxPoint x="330" y="690" as="targetPoint"/>
                        <mxPoint x="330" y="550" as="sourcePoint"/>
                    </mxGeometry>
                </mxCell>
                <mxCell id="K88zhTfSzGPeS8z7BmZC-90" style="edgeStyle=orthogonalEdgeStyle;rounded=0;orthogonalLoop=1;jettySize=auto;html=1;exitX=0.5;exitY=1;exitDx=0;exitDy=0;entryX=0.438;entryY=1.029;entryDx=0;entryDy=0;entryPerimeter=0;dashed=1;fontFamily=Helvetica;fontSize=12;fontColor=default;endArrow=none;endFill=0;strokeWidth=2;" parent="1" target="K88zhTfSzGPeS8z7BmZC-89" edge="1">
                    <mxGeometry relative="1" as="geometry">
                        <mxPoint x="330" y="550" as="sourcePoint"/>
                    </mxGeometry>
                </mxCell>
                <mxCell id="39" value="" style="edgeStyle=none;html=1;fontSize=12;exitX=0.5;exitY=1;exitDx=0;exitDy=0;" parent="1" source="QC7-dQoM_Bx-fPZ6owky-67" target="38" edge="1">
                    <mxGeometry relative="1" as="geometry">
                        <mxPoint x="340" y="1515" as="sourcePoint"/>
                    </mxGeometry>
                </mxCell>
                <mxCell id="36" value="rezult = NewArray&lt;br&gt;count = 0&amp;nbsp;" style="rounded=0;whiteSpace=wrap;html=1;fontSize=12;" parent="1" vertex="1">
                    <mxGeometry x="230" y="1030" width="200" height="40" as="geometry"/>
                </mxCell>
                <mxCell id="38" value="End" style="ellipse;whiteSpace=wrap;html=1;" parent="1" vertex="1">
                    <mxGeometry x="270" y="1545" width="120" height="30" as="geometry"/>
                </mxCell>
                <mxCell id="K88zhTfSzGPeS8z7BmZC-117" style="edgeStyle=orthogonalEdgeStyle;rounded=0;orthogonalLoop=1;jettySize=auto;html=1;entryX=1.006;entryY=0.143;entryDx=0;entryDy=0;entryPerimeter=0;dashed=1;fontFamily=Helvetica;fontSize=12;fontColor=default;endArrow=none;endFill=0;strokeWidth=2;" parent="1" source="41" target="59" edge="1">
                    <mxGeometry relative="1" as="geometry"/>
                </mxCell>
                <mxCell id="41" value="" style="strokeWidth=2;html=1;shape=mxgraph.flowchart.annotation_2;align=left;labelPosition=right;pointerEvents=1;fontSize=12;dashed=1;" parent="1" vertex="1">
                    <mxGeometry x="670" y="741" width="50" height="100" as="geometry"/>
                </mxCell>
                <mxCell id="44" value="&lt;span&gt;function select&lt;br&gt;&amp;nbsp;elements&lt;br&gt;&amp;nbsp;max three char &lt;br&gt;from massive&lt;/span&gt;" style="text;html=1;align=center;verticalAlign=middle;resizable=0;points=[];autosize=1;strokeColor=none;fillColor=none;fontSize=12;" parent="1" vertex="1">
                    <mxGeometry x="727" y="761" width="100" height="60" as="geometry"/>
                </mxCell>
                <mxCell id="48" value="" style="edgeStyle=none;html=1;fontSize=12;endArrow=classic;endFill=1;strokeWidth=1;exitX=0.5;exitY=1;exitDx=0;exitDy=0;" parent="1" source="36" target="47" edge="1">
                    <mxGeometry relative="1" as="geometry">
                        <mxPoint x="330" y="1100" as="sourcePoint"/>
                    </mxGeometry>
                </mxCell>
                <mxCell id="50" value="" style="edgeStyle=none;html=1;fontSize=12;endArrow=classic;endFill=1;strokeWidth=1;" parent="1" source="47" target="49" edge="1">
                    <mxGeometry relative="1" as="geometry"/>
                </mxCell>
                <mxCell id="57" value="" style="edgeStyle=none;html=1;fontSize=12;endArrow=classic;endFill=1;strokeWidth=1;entryX=0.5;entryY=0;entryDx=0;entryDy=0;" parent="1" source="47" target="K88zhTfSzGPeS8z7BmZC-97" edge="1">
                    <mxGeometry relative="1" as="geometry">
                        <mxPoint x="330" y="1490.0000000000005" as="targetPoint"/>
                        <Array as="points">
                            <mxPoint x="480" y="1120"/>
                            <mxPoint x="480" y="1380"/>
                            <mxPoint x="330" y="1380"/>
                        </Array>
                    </mxGeometry>
                </mxCell>
                <mxCell id="47" value="for i = 0; &lt;br&gt;i &amp;lt; size massive;&lt;br&gt;i ++" style="shape=hexagon;perimeter=hexagonPerimeter2;whiteSpace=wrap;html=1;fixedSize=1;" parent="1" vertex="1">
                    <mxGeometry x="230" y="1090" width="200" height="60" as="geometry"/>
                </mxCell>
                <mxCell id="53" value="No" style="edgeStyle=none;html=1;fontSize=12;endArrow=classic;endFill=1;strokeWidth=1;entryX=0;entryY=0.5;entryDx=0;entryDy=0;" parent="1" source="49" target="47" edge="1">
                    <mxGeometry x="-0.75" y="-20" relative="1" as="geometry">
                        <Array as="points">
                            <mxPoint x="200" y="1210"/>
                            <mxPoint x="200" y="1120"/>
                        </Array>
                        <mxPoint as="offset"/>
                        <mxPoint x="230" y="1160" as="targetPoint"/>
                    </mxGeometry>
                </mxCell>
                <mxCell id="49" value="item [ i ]&lt;br&gt;&amp;nbsp;Length &amp;lt; 4" style="rhombus;whiteSpace=wrap;html=1;" parent="1" vertex="1">
                    <mxGeometry x="255" y="1170" width="150" height="80" as="geometry"/>
                </mxCell>
                <mxCell id="54" style="edgeStyle=none;html=1;fontSize=12;endArrow=classic;endFill=1;strokeWidth=1;entryX=0;entryY=0.5;entryDx=0;entryDy=0;" parent="1" source="51" target="47" edge="1">
                    <mxGeometry relative="1" as="geometry">
                        <Array as="points">
                            <mxPoint x="330" y="1360"/>
                            <mxPoint x="200" y="1360"/>
                            <mxPoint x="200" y="1120"/>
                        </Array>
                        <mxPoint x="220" y="1080" as="targetPoint"/>
                    </mxGeometry>
                </mxCell>
                <mxCell id="51" value="rezult [ count ] = item [ i ] ;&lt;br&gt;count += 1" style="whiteSpace=wrap;html=1;" parent="1" vertex="1">
                    <mxGeometry x="220" y="1280" width="220" height="50" as="geometry"/>
                </mxCell>
                <mxCell id="59" value="" style="rounded=1;whiteSpace=wrap;html=1;dashed=1;fontSize=12;fillColor=none;strokeWidth=2;shadow=0;" parent="1" vertex="1">
                    <mxGeometry x="130" y="680" width="480" height="770" as="geometry"/>
                </mxCell>
                <mxCell id="61" value="Yes" style="edgeStyle=none;html=1;fontSize=12;endArrow=classic;endFill=0;strokeWidth=1;entryX=0.5;entryY=0;entryDx=0;entryDy=0;" parent="1" source="49" target="51" edge="1">
                    <mxGeometry y="20" relative="1" as="geometry">
                        <mxPoint x="330" y="1240" as="sourcePoint"/>
                        <mxPoint x="330" y="1271.5" as="targetPoint"/>
                        <mxPoint as="offset"/>
                    </mxGeometry>
                </mxCell>
                <mxCell id="QC7-dQoM_Bx-fPZ6owky-67" value="&lt;span style=&quot;&quot;&gt;Print rezult&lt;/span&gt;" style="shape=process;whiteSpace=wrap;html=1;backgroundOutline=1;verticalAlign=top;rounded=1;arcSize=0;" parent="1" vertex="1">
                    <mxGeometry x="270" y="1475" width="120" height="40" as="geometry"/>
                </mxCell>
                <mxCell id="K88zhTfSzGPeS8z7BmZC-116" style="edgeStyle=orthogonalEdgeStyle;rounded=0;orthogonalLoop=1;jettySize=auto;html=1;entryX=1;entryY=0.5;entryDx=0;entryDy=0;fontFamily=Helvetica;fontSize=12;fontColor=default;endArrow=none;endFill=0;strokeWidth=2;dashed=1;" parent="1" source="QC7-dQoM_Bx-fPZ6owky-69" target="QC7-dQoM_Bx-fPZ6owky-67" edge="1">
                    <mxGeometry relative="1" as="geometry"/>
                </mxCell>
                <mxCell id="QC7-dQoM_Bx-fPZ6owky-69" value="function print&lt;br&gt;elements from&lt;br&gt;massive &lt;br&gt;in to console" style="strokeWidth=2;html=1;shape=mxgraph.flowchart.annotation_2;align=left;labelPosition=right;pointerEvents=1;dashed=1;" parent="1" vertex="1">
                    <mxGeometry x="610" y="1445" width="60" height="100" as="geometry"/>
                </mxCell>
                <mxCell id="K88zhTfSzGPeS8z7BmZC-88" style="edgeStyle=orthogonalEdgeStyle;rounded=0;orthogonalLoop=1;jettySize=auto;html=1;dashed=1;fontFamily=Helvetica;fontSize=12;fontColor=default;endArrow=none;endFill=0;strokeWidth=2;entryX=0;entryY=0.5;entryDx=0;entryDy=0;" parent="1" source="QC7-dQoM_Bx-fPZ6owky-70" target="QC7-dQoM_Bx-fPZ6owky-71" edge="1">
                    <mxGeometry relative="1" as="geometry">
                        <mxPoint x="950" y="1340" as="targetPoint"/>
                    </mxGeometry>
                </mxCell>
                <mxCell id="QC7-dQoM_Bx-fPZ6owky-70" value="" style="strokeWidth=2;html=1;shape=mxgraph.flowchart.annotation_2;align=left;labelPosition=right;pointerEvents=1;direction=west;dashed=1;" parent="1" vertex="1">
                    <mxGeometry x="777" y="1445" width="50" height="100" as="geometry"/>
                </mxCell>
                <mxCell id="QC7-dQoM_Bx-fPZ6owky-73" style="edgeStyle=orthogonalEdgeStyle;rounded=0;orthogonalLoop=1;jettySize=auto;html=1;entryX=0.5;entryY=0;entryDx=0;entryDy=0;" parent="1" source="QC7-dQoM_Bx-fPZ6owky-71" target="QC7-dQoM_Bx-fPZ6owky-72" edge="1">
                    <mxGeometry relative="1" as="geometry">
                        <mxPoint x="990" y="1536" as="targetPoint"/>
                    </mxGeometry>
                </mxCell>
                <mxCell id="QC7-dQoM_Bx-fPZ6owky-71" value="Start" style="ellipse;whiteSpace=wrap;html=1;" parent="1" vertex="1">
                    <mxGeometry x="930" y="1475" width="120" height="40" as="geometry"/>
                </mxCell>
                <mxCell id="QC7-dQoM_Bx-fPZ6owky-77" value="" style="edgeStyle=orthogonalEdgeStyle;rounded=0;orthogonalLoop=1;jettySize=auto;html=1;" parent="1" source="QC7-dQoM_Bx-fPZ6owky-72" target="QC7-dQoM_Bx-fPZ6owky-76" edge="1">
                    <mxGeometry relative="1" as="geometry"/>
                </mxCell>
                <mxCell id="QC7-dQoM_Bx-fPZ6owky-72" value="for i = 0; &lt;br&gt;i &amp;lt; size massive;&lt;br&gt;i ++" style="shape=hexagon;perimeter=hexagonPerimeter2;whiteSpace=wrap;html=1;fixedSize=1;" parent="1" vertex="1">
                    <mxGeometry x="890" y="1545" width="200" height="60" as="geometry"/>
                </mxCell>
                <mxCell id="QC7-dQoM_Bx-fPZ6owky-78" style="edgeStyle=orthogonalEdgeStyle;rounded=0;orthogonalLoop=1;jettySize=auto;html=1;entryX=0;entryY=0.5;entryDx=0;entryDy=0;" parent="1" source="QC7-dQoM_Bx-fPZ6owky-76" target="QC7-dQoM_Bx-fPZ6owky-72" edge="1">
                    <mxGeometry relative="1" as="geometry">
                        <Array as="points">
                            <mxPoint x="990" y="1695"/>
                            <mxPoint x="870" y="1695"/>
                            <mxPoint x="870" y="1575"/>
                        </Array>
                    </mxGeometry>
                </mxCell>
                <mxCell id="QC7-dQoM_Bx-fPZ6owky-82" style="edgeStyle=orthogonalEdgeStyle;rounded=0;orthogonalLoop=1;jettySize=auto;html=1;exitX=1;exitY=0.5;exitDx=0;exitDy=0;entryX=0.5;entryY=0;entryDx=0;entryDy=0;" parent="1" source="QC7-dQoM_Bx-fPZ6owky-72" target="QC7-dQoM_Bx-fPZ6owky-80" edge="1">
                    <mxGeometry relative="1" as="geometry">
                        <mxPoint x="1120" y="1765" as="targetPoint"/>
                        <Array as="points">
                            <mxPoint x="1110" y="1575"/>
                            <mxPoint x="1110" y="1715"/>
                            <mxPoint x="990" y="1715"/>
                        </Array>
                    </mxGeometry>
                </mxCell>
                <mxCell id="QC7-dQoM_Bx-fPZ6owky-76" value="print item[ i ]" style="shape=parallelogram;perimeter=parallelogramPerimeter;whiteSpace=wrap;html=1;fixedSize=1;" parent="1" vertex="1">
                    <mxGeometry x="920" y="1635" width="140" height="40" as="geometry"/>
                </mxCell>
                <mxCell id="QC7-dQoM_Bx-fPZ6owky-80" value="End" style="ellipse;whiteSpace=wrap;html=1;" parent="1" vertex="1">
                    <mxGeometry x="930" y="1735" width="120" height="30" as="geometry"/>
                </mxCell>
                <mxCell id="K88zhTfSzGPeS8z7BmZC-65" style="edgeStyle=orthogonalEdgeStyle;rounded=0;orthogonalLoop=1;jettySize=auto;html=1;entryX=0.5;entryY=0;entryDx=0;entryDy=0;" parent="1" source="K88zhTfSzGPeS8z7BmZC-64" target="K88zhTfSzGPeS8z7BmZC-101" edge="1">
                    <mxGeometry relative="1" as="geometry"/>
                </mxCell>
                <mxCell id="K88zhTfSzGPeS8z7BmZC-64" value="&lt;span style=&quot;&quot;&gt;&amp;nbsp;string.split(&quot;,&quot;)&lt;/span&gt;&lt;br style=&quot;&quot;&gt;&lt;span style=&quot;&quot;&gt;.ToArray()&lt;/span&gt;" style="shape=process;whiteSpace=wrap;html=1;backgroundOutline=1;" parent="1" vertex="1">
                    <mxGeometry x="245" y="580" width="170" height="60" as="geometry"/>
                </mxCell>
                <mxCell id="K88zhTfSzGPeS8z7BmZC-89" value="&lt;span style=&quot;&quot;&gt;massive =&lt;/span&gt;" style="shape=parallelogram;perimeter=parallelogramPerimeter;whiteSpace=wrap;html=1;fixedSize=1;pointerEvents=1;fontFamily=Helvetica;fontSize=12;fontColor=default;strokeColor=default;strokeWidth=2;fillColor=default;" parent="1" vertex="1">
                    <mxGeometry x="270" y="510" width="120" height="40" as="geometry"/>
                </mxCell>
                <mxCell id="K88zhTfSzGPeS8z7BmZC-98" style="edgeStyle=orthogonalEdgeStyle;rounded=0;orthogonalLoop=1;jettySize=auto;html=1;entryX=0.5;entryY=0;entryDx=0;entryDy=0;fontFamily=Helvetica;fontSize=12;fontColor=default;endArrow=classicThin;endFill=0;strokeWidth=2;" parent="1" source="K88zhTfSzGPeS8z7BmZC-97" target="QC7-dQoM_Bx-fPZ6owky-67" edge="1">
                    <mxGeometry relative="1" as="geometry"/>
                </mxCell>
                <mxCell id="K88zhTfSzGPeS8z7BmZC-97" value="Return NewArray" style="rounded=0;whiteSpace=wrap;html=1;pointerEvents=1;fontFamily=Helvetica;fontSize=12;fontColor=default;strokeColor=default;strokeWidth=2;fillColor=default;" parent="1" vertex="1">
                    <mxGeometry x="250" y="1405" width="160" height="30" as="geometry"/>
                </mxCell>
                <mxCell id="K88zhTfSzGPeS8z7BmZC-101" value="count = 0&amp;nbsp;" style="rounded=0;whiteSpace=wrap;html=1;fontSize=12;" parent="1" vertex="1">
                    <mxGeometry x="250" y="701" width="160" height="29" as="geometry"/>
                </mxCell>
                <mxCell id="K88zhTfSzGPeS8z7BmZC-102" value="" style="edgeStyle=none;html=1;fontSize=12;endArrow=classic;endFill=1;strokeWidth=1;exitX=0.5;exitY=1;exitDx=0;exitDy=0;" parent="1" source="K88zhTfSzGPeS8z7BmZC-101" target="K88zhTfSzGPeS8z7BmZC-104" edge="1">
                    <mxGeometry relative="1" as="geometry">
                        <mxPoint x="330" y="771" as="sourcePoint"/>
                    </mxGeometry>
                </mxCell>
                <mxCell id="K88zhTfSzGPeS8z7BmZC-103" value="" style="edgeStyle=none;html=1;fontSize=12;endArrow=classic;endFill=1;strokeWidth=1;" parent="1" source="K88zhTfSzGPeS8z7BmZC-104" target="K88zhTfSzGPeS8z7BmZC-107" edge="1">
                    <mxGeometry relative="1" as="geometry"/>
                </mxCell>
                <mxCell id="K88zhTfSzGPeS8z7BmZC-115" style="edgeStyle=orthogonalEdgeStyle;rounded=0;orthogonalLoop=1;jettySize=auto;html=1;exitX=1;exitY=0.5;exitDx=0;exitDy=0;entryX=0.5;entryY=0;entryDx=0;entryDy=0;fontFamily=Helvetica;fontSize=12;fontColor=default;endArrow=classicThin;endFill=0;strokeWidth=2;" parent="1" source="K88zhTfSzGPeS8z7BmZC-104" target="36" edge="1">
                    <mxGeometry relative="1" as="geometry">
                        <Array as="points">
                            <mxPoint x="450" y="791"/>
                            <mxPoint x="450" y="1010"/>
                            <mxPoint x="330" y="1010"/>
                        </Array>
                    </mxGeometry>
                </mxCell>
                <mxCell id="K88zhTfSzGPeS8z7BmZC-104" value="for i = 0; &lt;br&gt;i &amp;lt; size massive;&lt;br&gt;i ++" style="shape=hexagon;perimeter=hexagonPerimeter2;whiteSpace=wrap;html=1;fixedSize=1;" parent="1" vertex="1">
                    <mxGeometry x="230" y="761" width="200" height="60" as="geometry"/>
                </mxCell>
                <mxCell id="K88zhTfSzGPeS8z7BmZC-106" value="No" style="edgeStyle=none;html=1;fontSize=12;endArrow=classic;endFill=1;strokeWidth=1;entryX=0;entryY=0.5;entryDx=0;entryDy=0;" parent="1" source="K88zhTfSzGPeS8z7BmZC-107" target="K88zhTfSzGPeS8z7BmZC-104" edge="1">
                    <mxGeometry x="-0.75" y="-20" relative="1" as="geometry">
                        <Array as="points">
                            <mxPoint x="210" y="881"/>
                            <mxPoint x="210" y="791"/>
                        </Array>
                        <mxPoint as="offset"/>
                        <mxPoint x="230" y="831" as="targetPoint"/>
                    </mxGeometry>
                </mxCell>
                <mxCell id="K88zhTfSzGPeS8z7BmZC-107" value="item [ i ]&lt;br&gt;&amp;nbsp;Length &amp;lt; 4" style="rhombus;whiteSpace=wrap;html=1;" parent="1" vertex="1">
                    <mxGeometry x="255" y="841" width="150" height="80" as="geometry"/>
                </mxCell>
                <mxCell id="K88zhTfSzGPeS8z7BmZC-108" style="edgeStyle=none;html=1;fontSize=12;endArrow=classic;endFill=1;strokeWidth=1;entryX=0;entryY=0.5;entryDx=0;entryDy=0;" parent="1" source="K88zhTfSzGPeS8z7BmZC-109" target="K88zhTfSzGPeS8z7BmZC-104" edge="1">
                    <mxGeometry relative="1" as="geometry">
                        <Array as="points">
                            <mxPoint x="330" y="1000"/>
                            <mxPoint x="210" y="1000"/>
                            <mxPoint x="210" y="791"/>
                        </Array>
                        <mxPoint x="220" y="751" as="targetPoint"/>
                    </mxGeometry>
                </mxCell>
                <mxCell id="K88zhTfSzGPeS8z7BmZC-109" value="count += 1" style="whiteSpace=wrap;html=1;" parent="1" vertex="1">
                    <mxGeometry x="250" y="950" width="160" height="30" as="geometry"/>
                </mxCell>
                <mxCell id="K88zhTfSzGPeS8z7BmZC-112" value="Yes" style="edgeStyle=none;html=1;fontSize=12;endArrow=classic;endFill=0;strokeWidth=1;entryX=0.5;entryY=0;entryDx=0;entryDy=0;" parent="1" source="K88zhTfSzGPeS8z7BmZC-107" target="K88zhTfSzGPeS8z7BmZC-109" edge="1">
                    <mxGeometry y="20" relative="1" as="geometry">
                        <mxPoint x="330" y="911" as="sourcePoint"/>
                        <mxPoint x="330" y="942.4999999999995" as="targetPoint"/>
                        <mxPoint as="offset"/>
                    </mxGeometry>
                </mxCell>
            </root>
        </mxGraphModel>
    </diagram>
</mxfile>